<svg xmlns="http://www.w3.org/2000/svg" viewBox="0 0 351 198"><defs><style>.cls-1{fill:#fff;}</style></defs><g id="Layer_2" data-name="Layer 2"><g id="Layer_1-2" data-name="Layer 1"><path class="cls-1" d="M.5,197.5v-49c28.72-.26,52-22.59,52-50S29.22,48.76.5,48.5V.5h350v48c-28.72.26-52,22.59-52,50s23.28,49.74,52,50v49Z"/><path d="M350,1V48c-28.77.51-52,23-52,50.49s23.23,50,52,50.49v48H1V149c28.77-.51,52-23,52-50.49S29.77,48.52,1,48V1H350m1-1H0V49c28.72,0,52,22.16,52,49.5S28.72,148,0,148v50H351V148c-28.72,0-52-22.16-52-49.5S322.28,49,351,49V0Z"/><g id="dollars"><path d="M140.07,140.44V156.7H127.44V140.28c-20-2.21-27.94-13.58-28.26-28.57h11.68c1,10.73,6.32,19.25,24,19.25,15.15,0,20.52-4.73,20.52-13.41,0-8-4.42-12-14.37-13.42l-18.31-2.69c-13.73-1.89-21.47-9-21.47-21.31,0-12.94,10-21.63,26.21-23.36V40.67h12.63v16.1c16.57,2,25.41,11.68,26.2,24.94H153.8c-.79-8.21-6-15.63-20.52-15.63-13.42,0-19.73,5.37-19.73,13.1,0,5.53,2.84,10.27,12.78,11.69l17.84,2.52c17.05,2.53,23.68,10.42,23.68,23.53C167.85,131.44,158.7,139.17,140.07,140.44Z"/><path d="M221.52,140.44V156.7H208.89V140.28c-20-2.21-27.94-13.58-28.25-28.57h11.68c1,10.73,6.31,19.25,24,19.25,15.16,0,20.53-4.73,20.53-13.41,0-8-4.42-12-14.37-13.42l-18.31-2.69c-13.73-1.89-21.47-9-21.47-21.31,0-12.94,9.95-21.63,26.2-23.36V40.67h12.63v16.1c16.58,2,25.42,11.68,26.21,24.94H235.26c-.79-8.21-6-15.63-20.52-15.63-13.42,0-19.74,5.37-19.74,13.1,0,5.53,2.84,10.27,12.79,11.69l17.84,2.52c17.05,2.53,23.68,10.42,23.68,23.53C249.31,131.44,240.15,139.17,221.52,140.44Z"/></g></g></g></svg>